<svg width="243" height="243" viewBox="0 0 243 243" fill="none" xmlns="http://www.w3.org/2000/svg">
<circle cx="121.5" cy="121.5" r="118.5" stroke="url(#paint0_linear_161_216)" stroke-width="6"/>
<path d="M143.951 138.777C150.002 139.792 156.671 138.732 161.352 135.597C167.58 131.445 167.58 124.643 161.352 120.492C156.627 117.356 149.869 116.296 143.818 117.356M99.9165 138.777C93.8657 139.792 87.1965 138.732 82.5149 135.597C76.2874 131.445 76.2874 124.643 82.5149 120.492C87.2407 117.356 93.9982 116.296 100.049 117.356M148.5 106.623C148.222 106.579 147.939 106.579 147.661 106.623C144.713 106.517 141.923 105.268 139.879 103.142C137.835 101.015 136.697 98.1777 136.707 95.2283C136.707 88.9124 141.787 83.8333 148.102 83.8333C151.125 83.8333 154.023 85.0338 156.16 87.1708C158.297 89.3077 159.497 92.2061 159.497 95.2283C159.489 98.1798 158.34 101.014 156.29 103.138C154.241 105.261 151.449 106.51 148.5 106.623V106.623ZM95.3674 106.623C95.6324 106.579 95.9415 106.579 96.2065 106.623C99.1541 106.517 101.945 105.268 103.989 103.142C106.033 101.015 107.17 98.1777 107.16 95.2283C107.16 88.9124 102.081 83.8333 95.7649 83.8333C92.7427 83.8333 89.8444 85.0338 87.7074 87.1708C85.5704 89.3077 84.3699 92.2061 84.3699 95.2283C84.414 101.412 89.2724 106.402 95.3674 106.623ZM122 139.616C121.722 139.572 121.439 139.572 121.161 139.616C118.213 139.509 115.423 138.261 113.379 136.134C111.335 134.008 110.197 131.17 110.207 128.221C110.207 121.905 115.287 116.826 121.602 116.826C124.625 116.826 127.523 118.026 129.66 120.163C131.797 122.3 132.997 125.199 132.997 128.221C132.953 134.404 128.095 139.439 122 139.616ZM109.147 153.528C102.92 157.68 102.92 164.482 109.147 168.633C116.214 173.359 127.786 173.359 134.852 168.633C141.08 164.482 141.08 157.68 134.852 153.528C127.83 148.847 116.214 148.847 109.147 153.528Z" stroke="url(#paint1_linear_161_216)" stroke-width="7" stroke-linecap="round" stroke-linejoin="round"/>
<defs>
<linearGradient id="paint0_linear_161_216" x1="121.5" y1="0" x2="121.5" y2="243" gradientUnits="userSpaceOnUse">
<stop stop-color="#00FFAA"/>
<stop offset="1" stop-color="#0E60FF"/>
</linearGradient>
<linearGradient id="paint1_linear_161_216" x1="121.934" y1="83.8333" x2="121.934" y2="172.178" gradientUnits="userSpaceOnUse">
<stop stop-color="#00FFAA"/>
<stop offset="1" stop-color="#0E60FF"/>
</linearGradient>
</defs>
</svg>
